PathFileType	4	(X/Y/Z)	/Users/rkoike/Documents/python/sports2d/webcam_20250606_145141/webcam_20250606_145141_px_person01.trc
DataRate	CameraRate	NumFrames	NumMarkers	Units	OrigDataRate	OrigDataStartFrame	OrigNumFrames
30	30	9	22	m	30	3522	4026
Frame#	Time	Hip			RHip			RKnee			RAnkle			RBigToe			RSmallToe			RHeel			LHip			LKnee			LAnkle			LBigToe			LSmallToe			LHeel			Neck			Head			Nose			RShoulder			RElbow			RWrist			LShoulder			LElbow			LWrist			
		X1	Y1	Z1	X2	Y2	Z2	X3	Y3	Z3	X4	Y4	Z4	X5	Y5	Z5	X6	Y6	Z6	X7	Y7	Z7	X8	Y8	Z8	X9	Y9	Z9	X10	Y10	Z10	X11	Y11	Z11	X12	Y12	Z12	X13	Y13	Z13	X14	Y14	Z14	X15	Y15	Z15	X16	Y16	Z16	X17	Y17	Z17	X18	Y18	Z18	X19	Y19	Z19	X20	Y20	Z20	X21	Y21	Z21	X22	Y22	Z22
3522	117.42916770186335	537.9762036156338	844.4400854514047	0.0	433.68421616586176	828.0579285342668	0.0	163.5578543855254	723.2376421402325	0.0	431.6506242597011	615.0177694969907	0.0	576.7214488364204	68.8189573070531	0.0	1249.8014322916667	114.45313072204588	0.0			0.0	642.9705003518329	843.7252447411213	0.0	599.5038355761172	726.7797469171354	0.0	687.7769746785391	266.25100324859727	0.0	515.0239344796878	118.17696879243911	0.0	576.7214488364204	192.21398602051815	0.0	669.2677203715191	303.2695118626368	0.0	571.5922480264663	368.97879291387886	0.0	513.7739302818411	70.83481051343314	0.0	514.3899377609671	238.51558025317584	0.0	391.6703955172691	459.7353247156942	0.0	322.7060250007711	675.6957171048006	0.0	213.8325994966849	725.3124191597652	0.0	780.3326191996276	482.56478527777773	0.0	847.1310022732947	743.2565970499265	0.0	779.1413145265853	753.0641190859374	0.0
3523	117.46250931677018	541.5879597294463	842.950844300864	0.0	437.2537180892829	829.2975632702173	0.0	171.44969797340892	719.5630859642716	0.0	431.6506242597011	615.0177694969907	0.0	576.7214488364204	68.8189573070531	0.0	1249.8014322916667	114.45313072204588	0.0			0.0	646.0929028087702	843.6194014423486	0.0	599.5038355768116	726.7797469171384	0.0	687.7769746785391	266.25100324859727	0.0	515.0239344796878	118.1769687924391	0.0	576.7214488364204	192.21398602051815	0.0	669.2677203715191	303.2695118626368	0.0	570.707433954715	370.35560265538584	0.0	514.6557779913783	71.38007211152856	0.0	514.4799230380453	238.44512885418146	0.0	390.1411776928388	460.8446041389401	0.0	320.41779322231224	676.6210878009608	0.0	209.56621225386598	725.2486712720694	0.0	779.5627216258807	482.09386628567574	0.0	848.3893009067556	739.9144181388577	0.0	779.0372599160753	753.1099223931429	0.0
3524	117.49585093167701	543.0394744572606	843.0936933222619	0.0	438.67720683552716	829.7589935771922	0.0	174.67586196884818	718.0564291837624	0.0	431.6506242597011	615.0177694969907	0.0	576.7214488364204	68.8189573070531	0.0	1249.8014322916667	114.45313072204588	0.0			0.0	647.3272976529506	843.5558337442214	0.0	599.503835578559	726.7797469171456	0.0	687.7769746785391	266.25100324859727	0.0	515.0239344796878	118.1769687924391	0.0	576.7214488364204	192.21398602051815	0.0	669.2677203715191	303.2695118626368	0.0	570.4373503975206	370.7257501421693	0.0	514.982061340302	71.5100611150366	0.0	514.7964545428209	238.37851422666745	0.0	389.5546209680356	461.1249558501813	0.0	319.8076161090757	676.7803351728397	0.0	208.33569319154643	725.274457371264	0.0	779.200290768753	481.82786907732464	0.0	848.8898099133831	738.8276484528641	0.0	779.1642819222733	753.1303787159798	0.0
3525	117.52919254658384	543.0624366052676	843.5045268614069	0.0	438.71165890161706	829.7550035940219	0.0	174.7898106129181	718.0014882319462	0.0	431.6506242597011	615.0177694969907	0.0	576.7214488364204	68.8189573070531	0.0	1249.8014322916667	114.4531307220459	0.0			0.0	647.3522788495319	843.5443836787485	0.0	599.5038355783097	726.7797469171446	0.0	687.7769746785391	266.25100324859727	0.0	515.0239344796878	118.17696879243911	0.0	576.7214488364204	192.21398602051815	0.0	669.2677203715191	303.2695118626368	0.0	570.4756808372161	370.64579636674966	0.0	514.9771780435977	71.46799393730528	0.0	514.9430236681416	238.36264440427962	0.0	389.55060613271877	461.05243707153863	0.0	319.95254942019665	676.6710229220838	0.0	208.50301583225917	725.3031780241213	0.0	779.1548431200116	481.78506018348793	0.0	848.9072669939935	738.9351815091062	0.0	779.2444361114583	753.1320558826043	0.0
3526	117.56253416149067	542.7866926792955	843.6283571224408	0.0	438.4456457511289	829.6631601258151	0.0	174.20020105185418	718.2762098798722	0.0	431.6506242597011	615.0177694969907	0.0	576.7214488364204	68.8189573070531	0.0	1249.8014322916667	114.45313072204588	0.0			0.0	647.1197997800915	843.55258395044	0.0	599.5038355689159	726.7797469171054	0.0	687.7769746785391	266.25100324859727	0.0	515.0239344796878	118.17696879243911	0.0	576.7214488364204	192.21398602051815	0.0	669.2677203715191	303.2695118626368	0.0	570.542740528388	370.543775890075	0.0	514.911489862391	71.42700128067806	0.0	514.9352065642784	238.36983178812665	0.0	389.6639879502166	460.97073967051585	0.0	320.1255974648267	676.5994429449529	0.0	208.80583066057804	725.3087398848513	0.0	779.2090252865607	481.8213277373857	0.0	848.815719101808	739.1877228356902	0.0	779.2491923756958	753.1286655896138	0.0
3527	117.5958757763975	542.6802997332875	843.5936884703457	0.0	438.3406050940339	829.6300257137922	0.0	173.95998359126864	718.3884918775678	0.0	431.6506242597011	615.0177694969907	0.0	576.7214488364204	68.8189573070531	0.0	1249.8014322916667	114.45313072204588	0.0			0.0	647.0289936360981	843.5578843354496	0.0	599.503835552462	726.7797469170367	0.0	687.7769746785391	266.25100324859727	0.0	515.0239344796878	118.1769687924391	0.0	576.7214488364204	192.21398602051815	0.0	669.2677203715191	303.2695118626368	0.0	570.5600025530686	370.521723840198	0.0	514.8881582915803	71.42008098213164	0.0	514.903610944167	238.37558348695103	0.0	389.7066613249912	460.9547524225316	0.0	320.1611541950338	676.5943987723236	0.0	208.88491863245147	725.3051729554352	0.0	779.2379374159849	481.8431146885007	0.0	848.7784582900889	739.2599915213325	0.0	779.2352248566291	753.1270928893134	0.0
3528	117.62921739130434	542.6949748275873	843.5567286771762	0.0	438.3539018254495	829.635879617216	0.0	173.98653300737425	718.3762171828785	0.0	431.6506242597011	615.0177694969907	0.0	576.7214488364204	68.8189573070531	0.0	1249.8014322916667	114.45313072204588	0.0			0.0	647.0409296381027	843.558372754769	0.0	599.5038355693841	726.7797469171073	0.0	687.7769746785391	266.25100324859727	0.0	515.0239344796878	118.1769687924391	0.0	576.7214488364204	192.21398602051815	0.0	669.2677203715191	303.2695118626368	0.0	570.5531804470335	370.5335082282401	0.0	514.8923330764756	71.42550055116416	0.0	514.8934365041347	238.37624079351448	0.0	389.7001657633784	460.96485839193775	0.0	320.14034507755827	676.6065693565793	0.0	208.85461012150367	725.3027787283257	0.0	779.2379604687885	481.8440675013112	0.0	848.7825466361581	739.2372620370573	0.0	779.2290251153757	753.127214067879	0.0
3529	117.66255900621117	542.7212305550452	843.5499428997924	0.0	438.3794023355391	829.6446281092965	0.0	174.04326199223468	718.3497158809116	0.0	431.6506242597011	615.0177694969907	0.0	576.7214488364204	68.8189573070531	0.0	1249.8014322916667	114.4531307220459	0.0			0.0	647.0630977878393	843.557627805535	0.0	599.5038356853457	726.7797469175915	0.0	687.7769746785391	266.25100324859727	0.0	515.0239344796878	118.17696879243911	0.0	576.7214488364204	192.21398602051815	0.0	669.2677203715191	303.2695118626368	0.0	570.5472127338533	370.54214344081623	0.0	514.8983918699165	71.42881367262292	0.0	514.8958405631605	238.37530310816157	0.0	389.6893447369277	460.971744177477	0.0	320.12562067298273	676.6120807048405	0.0	208.82770980060863	725.3026078780764	0.0	779.2322573045667	481.8401478609849	0.0	848.7912892358931	739.2147207235847	0.0	779.2294186246986	753.1275958707454	0.0
3530	117.695900621118	542.7280826227	843.5543234466082	0.0	438.38614118382156	829.6463177807947	0.0	174.05950661614892	718.3422190209417	0.0	431.6506242597011	615.0177694969907	0.0	576.7214488364204	68.8189573070531	0.0	1249.8014322916667	114.45313072204588	0.0			0.0	647.069069225329	843.556777021508	0.0	599.50383581776	726.7797469181443	0.0	687.7769746785391	266.25100324859727	0.0	515.0239344796878	118.17696879243911	0.0	576.7214488364204	192.21398602051815	0.0	669.2677203715191	303.2695118626368	0.0	570.5465729359595	370.5431805439041	0.0	514.9000528066659	71.4291487951622	0.0	514.8988293026589	238.3750354067049	0.0	389.6868157471773	460.9722669879182	0.0	320.12443850680967	676.6116914262196	0.0	208.82451506499268	725.3029765363924	0.0	779.2303112277582	481.8384836164663	0.0	848.7939515573149	739.2107733525994	0.0	779.231229080163	753.1275716590237	0.0
